<svg xmlns="http://www.w3.org/2000/svg" xmlns:xlink="http://www.w3.org/1999/xlink" xmlns:inkscape="http://www.inkscape.org/namespaces/inkscape" version="1.1" width="342.66" height="110.888" viewBox="0 0 342.66 110.888">
<defs>
<clipPath id="clip_0">
<path transform="matrix(1,0,0,-1,.000000000000008465,111)" d="M0 0H343V111H0Z"/>
</clipPath>
</defs>
<g>
<g>
<g clip-path="url(#clip_0)">
<path transform="matrix(1,0,0,-1,.000000000000008465,111)" d="M127.652 64.566C128.746 64.566 129.488 64.594 129.875 64.656 130.266 64.719 130.691 64.84 131.156 65.023 131.949 65.324 132.648 65.766 133.246 66.355 133.836 66.926 134.289 67.59 134.605 68.344 134.926 69.094 135.086 69.883 135.086 70.707 135.086 71.863 134.797 72.926 134.219 73.902 133.641 74.879 132.863 75.621 131.887 76.125 130.91 76.625 129.586 76.879 127.906 76.879H123.75V64.566ZM129.566 75.211C129.949 75.145 130.355 75.012 130.781 74.813 131.207 74.613 131.586 74.355 131.914 74.043 132.809 73.211 133.258 72.129 133.258 70.805 133.258 69.457 132.82 68.344 131.949 67.461 131.68 67.191 131.383 66.961 131.055 66.777 130.727 66.59 130.32 66.438 129.832 66.316 129.344 66.195 128.656 66.137 127.773 66.137H125.516V75.309H127.723C128.57 75.309 129.184 75.273 129.566 75.211M137.289 64.566H144.449V66.137H139.055V69.965H144.105V71.547H139.055V75.309H144.281V76.879H137.289ZM148.008 64.547V69.898H149.313C150.477 69.898 151.375 70.023 151.996 70.273 152.621 70.523 153.113 70.922 153.473 71.477 153.828 72.031 154.008 72.664 154.008 73.383 154.008 74.453 153.66 75.309 152.961 75.941 152.258 76.578 151.32 76.898 150.145 76.898H146.23V64.547ZM152.184 73.426C152.184 72.797 151.988 72.313 151.598 71.973 151.211 71.637 150.656 71.469 149.941 71.469H148.008V75.324H149.836C151.398 75.324 152.184 74.691 152.184 73.426M152.738 64.547H154.551L156.094 68.203H161.355L163 64.547H164.805L159.273 76.949H158.035ZM156.793 69.773 158.641 74.238 160.629 69.773ZM167.973 64.547V69.914H168.434C169.012 69.914 169.422 69.848 169.668 69.715 169.91 69.582 170.184 69.367 170.488 69.066 170.793 68.77 171.125 68.367 171.488 67.859L172.078 66.898 172.629 65.996 172.973 65.508C173.023 65.438 173.059 65.387 173.078 65.359L173.613 64.547H175.715L175.063 65.43C174.805 65.781 174.461 66.309 174.027 67.008 173.348 68.121 172.816 68.902 172.441 69.348 172.063 69.797 171.68 70.148 171.285 70.41 171.953 70.668 172.469 71.059 172.828 71.582 173.188 72.105 173.367 72.727 173.367 73.445 173.367 74.5 173 75.332 172.27 75.953 171.535 76.57 170.547 76.879 169.297 76.879H166.207V64.547ZM170.359 75.184C170.734 75.055 171.023 74.832 171.23 74.516 171.438 74.203 171.539 73.852 171.539 73.461 171.539 73.066 171.445 72.715 171.262 72.406 171.074 72.098 170.816 71.867 170.484 71.715 170.152 71.563 169.539 71.484 168.645 71.484H167.973V75.379H168.504C169.367 75.379 169.988 75.313 170.359 75.184M174.398 75.324H178.629V64.547H180.402V75.324H184.699V76.898H174.398ZM183.199 64.547H185.016L186.555 68.203H191.816L193.461 64.547H195.266L189.738 76.949H188.496ZM187.258 69.773 189.102 74.238 191.09 69.773ZM202.352 71.813 198.254 76.879H196.582V64.547H198.348V74.141L202.184 69.375H202.512L206.301 74.141V64.547H208.074V76.879H206.426ZM210.734 64.566H217.891V66.137H212.5V69.965H217.547V71.547H212.5V75.309H217.723V76.879H210.734ZM229.57 67.301 221.254 76.879H219.824V64.547H221.484V74.043L229.73 64.547H231.246V76.879H229.57ZM232.836 75.324H237.063V64.547H238.84V75.324H243.137V76.898H232.836ZM244.953 75.246C243.707 74.039 243.086 72.516 243.086 70.672 243.086 68.879 243.703 67.383 244.941 66.195 246.18 65 247.727 64.406 249.586 64.406 251.531 64.406 253.145 65 254.426 66.195 255.703 67.383 256.344 68.891 256.344 70.707 256.344 72.527 255.711 74.039 254.441 75.246 253.176 76.453 251.59 77.055 249.684 77.055 247.777 77.055 246.199 76.453 244.953 75.246M253.145 74.039C254.063 73.148 254.523 72.051 254.523 70.742 254.523 69.402 254.063 68.281 253.145 67.379 252.223 66.48 251.074 66.031 249.699 66.031 248.332 66.031 247.191 66.473 246.277 67.355 245.367 68.238 244.91 69.344 244.91 70.672 244.91 72.043 245.367 73.172 246.273 74.055 247.184 74.938 248.344 75.379 249.754 75.379 251.094 75.379 252.223 74.934 253.145 74.039M267.457 64.566C268.551 64.566 269.293 64.594 269.68 64.656 270.07 64.719 270.496 64.84 270.961 65.023 271.754 65.324 272.453 65.766 273.055 66.355 273.641 66.926 274.094 67.59 274.41 68.344 274.73 69.094 274.891 69.883 274.891 70.707 274.891 71.863 274.602 72.926 274.023 73.902 273.445 74.879 272.672 75.621 271.691 76.125 270.715 76.625 269.391 76.879 267.711 76.879H263.555V64.566ZM269.371 75.211C269.754 75.145 270.16 75.012 270.586 74.813 271.012 74.613 271.391 74.355 271.719 74.043 272.613 73.211 273.063 72.129 273.063 70.805 273.063 69.457 272.625 68.344 271.754 67.461 271.484 67.191 271.188 66.961 270.859 66.777 270.531 66.59 270.125 66.438 269.637 66.316 269.148 66.195 268.465 66.137 267.578 66.137H265.32V75.309H267.527C268.375 75.309 268.988 75.273 269.371 75.211M277.098 64.566H284.254V66.137H278.859V69.965H283.91V71.547H278.859V75.309H284.086V76.879H277.098V64.566" fill="#7b7979"/>
<path transform="matrix(1,0,0,-1,.000000000000008465,111)" d="M122.715 33.254H136.063V36.184H126.008V43.328H135.422V46.273H126.008V53.285H135.75V56.215H122.715ZM139.566 33.223H153.211V36.215H142.859V56.215H139.566ZM156.09 33.254H169.438V36.184H159.383V43.328H168.797V46.273H159.383V53.285H169.125V56.215H156.09ZM184.598 35.988C181.93 35.988 179.742 36.797 178.031 38.422 176.316 40.047 175.461 42.121 175.461 44.645 175.461 47.145 176.332 49.227 178.07 50.891 179.809 52.551 181.996 53.383 184.629 53.383 187.195 53.383 189.824 52.613 192.512 51.078V54.617C189.563 55.879 186.879 56.508 184.465 56.508 180.965 56.508 178.02 55.367 175.637 53.086 173.25 50.805 172.055 47.988 172.055 44.645 172.055 42.535 172.574 40.578 173.617 38.766 174.66 36.957 176.074 35.535 177.863 34.504 179.652 33.473 181.832 32.957 184.398 32.957 187.559 32.957 190.348 33.617 192.762 34.934V38.555C190.105 36.844 187.383 35.988 184.598 35.988M194.852 53.316H202.734V33.223H206.043V53.316H214.055V56.246H194.852ZM220.559 33.223V43.23H221.414C222.492 43.23 223.258 43.105 223.715 42.859 224.168 42.613 224.68 42.211 225.246 41.652 225.813 41.094 226.434 40.34 227.113 39.398L228.215 37.602 229.234 35.922 229.875 35.016C229.973 34.883 230.039 34.793 230.07 34.738L231.074 33.223H234.992L233.773 34.867C233.289 35.527 232.648 36.508 231.848 37.813 230.574 39.887 229.586 41.34 228.887 42.176 228.184 43.008 227.465 43.668 226.73 44.148 227.98 44.633 228.941 45.363 229.609 46.34 230.277 47.316 230.613 48.473 230.613 49.813 230.613 51.777 229.93 53.332 228.563 54.484 227.199 55.637 225.352 56.215 223.027 56.215H217.266V33.223ZM225.008 53.055C225.707 52.813 226.246 52.398 226.629 51.813 227.016 51.223 227.207 50.57 227.207 49.844 227.207 49.109 227.035 48.453 226.688 47.879 226.344 47.301 225.859 46.871 225.238 46.586 224.621 46.301 223.477 46.156 221.809 46.156H220.559V53.414H221.547C223.156 53.414 224.313 53.293 225.008 53.055M237.969 53.168C235.645 50.918 234.48 48.078 234.48 44.645 234.48 41.297 235.637 38.512 237.941 36.293 240.25 34.07 243.137 32.957 246.602 32.957 250.23 32.957 253.238 34.07 255.625 36.293 258.008 38.512 259.199 41.32 259.199 44.711 259.199 48.098 258.02 50.918 255.656 53.168 253.293 55.418 250.336 56.543 246.781 56.543 243.23 56.543 240.293 55.418 237.969 53.168M253.238 50.922C254.953 49.258 255.809 47.211 255.809 44.777 255.809 42.273 254.953 40.184 253.238 38.504 251.52 36.824 249.383 35.988 246.816 35.988 244.262 35.988 242.137 36.809 240.438 38.457 238.738 40.102 237.887 42.164 237.887 44.645 237.887 47.199 238.734 49.301 240.43 50.945 242.121 52.594 244.285 53.414 246.914 53.414 249.414 53.414 251.52 52.586 253.238 50.922M281.52 38.355 266.016 56.215H263.348V33.223H266.441V50.93L281.813 33.223H284.645V56.215H281.52ZM289.598 33.223H292.891V56.215H289.598ZM309.645 35.988C306.98 35.988 304.789 36.797 303.078 38.422 301.367 40.047 300.512 42.121 300.512 44.645 300.512 47.145 301.379 49.227 303.117 50.891 304.859 52.551 307.047 53.383 309.68 53.383 312.246 53.383 314.875 52.613 317.563 51.078V54.617C314.609 55.879 311.926 56.508 309.512 56.508 306.012 56.508 303.07 55.367 300.684 53.086 298.297 50.805 297.105 47.988 297.105 44.645 297.105 42.535 297.625 40.578 298.668 38.766 299.711 36.957 301.125 35.535 302.914 34.504 304.703 33.473 306.879 32.957 309.445 32.957 312.605 32.957 315.395 33.617 317.809 34.934V38.555C315.152 36.844 312.434 35.988 309.645 35.988M320.16 33.223H323.543L326.418 40.035H336.227L339.293 33.223H342.66L332.352 56.344H330.035ZM327.723 42.965 331.164 51.293 334.875 42.965H327.723" fill="#393536"/>
<path transform="matrix(1,0,0,-1,.000000000000008465,111)" d="M112.563 84.359 96.891 111H65.723L50.066 84.359 65.723 57.723H96.891ZM110.117 84.359 95.66 59.93H66.746L63.074 66.227 66.215 69.359H87.684V69.363L87.688 69.359 95.367 76.152H95.371V91.988C97.473 92.488 99.043 94.367 99.043 96.621 99.043 99.258 96.906 101.395 94.27 101.395 91.633 101.395 89.496 99.258 89.496 96.621 89.496 94.367 91.063 92.488 93.164 91.988V77.152L86.852 71.566H65.32V71.563L61.926 68.195 52.5 84.359 62.133 100.98 67.914 96.84V88.992C65.813 88.492 64.246 86.613 64.246 84.359 64.246 81.727 66.383 79.586 69.02 79.586 71.652 79.586 73.793 81.727 73.793 84.359 73.793 86.613 72.223 88.492 70.121 88.992V97.988H70.109L63.246 102.902 66.746 108.934H82.953V88.992C80.852 88.492 79.285 86.613 79.285 84.359 79.285 81.727 81.422 79.586 84.055 79.586 86.691 79.586 88.828 81.727 88.828 84.359 88.828 86.613 87.262 88.492 85.16 88.992V108.934H95.766L110.117 84.359" fill="#7b7979"/>
<path transform="matrix(1,0,0,-1,.000000000000008465,111)" d="M57.5 63.949 46.66 82.418H15.137L0 56.621H15.746L28.008 70.48C27.52 71.254 27.227 72.164 27.227 73.148 27.227 75.914 29.469 78.16 32.238 78.16 35.008 78.16 37.25 75.914 37.25 73.148 37.25 70.379 35.008 68.137 32.238 68.137 31.258 68.137 30.348 68.43 29.574 68.914L16.742 54.41 16.723 54.43V54.41H.047L15.137 28.691H46.66L55.52 43.785H31.352C30.879 41.508 28.863 39.797 26.445 39.797 23.676 39.797 21.434 42.039 21.434 44.809 21.434 47.574 23.676 49.82 26.445 49.82 28.805 49.82 30.77 48.188 31.301 45.992H56.813L62.422 55.555 58.652 61.984 54.141 57.551V57.539H41.352C40.848 55.305 38.859 53.633 36.469 53.633 33.703 53.633 31.461 55.875 31.461 58.645 31.461 61.41 33.703 63.656 36.469 63.656 38.855 63.656 40.848 61.984 41.352 59.746H53.227L57.5 63.949" fill="#61c332"/>
<path transform="matrix(1,0,0,-1,.000000000000008465,111)" d="M99.863 23.305V23.293H85.664V23.309L78.023 31.082H70.484C70.047 28.758 68.016 27 65.566 27 62.797 27 60.555 29.246 60.555 32.012 60.555 34.781 62.797 37.023 65.566 37.023 67.891 37.023 69.824 35.438 70.391 33.289H78.965V33.273L86.602 25.5H98.98L104.875 30.996 104.883 30.992V30.996H110.91L97.508 53.836H65.984L61.645 46.016H69.781V46.008L69.785 46.012 74.773 41.086H86.191C86.695 43.316 88.684 44.984 91.066 44.984 93.836 44.984 96.078 42.742 96.078 39.973 96.078 37.207 93.836 34.961 91.066 34.961 88.676 34.961 86.688 36.637 86.184 38.875H73.82V38.883L73.813 38.875 68.883 43.777H60.41L50.223 26.973 65.984 .113H97.508L107.406 16.977H90.93L85.324 11.371C85.781 10.617 86.059 9.742 86.059 8.801 86.059 6.031 83.813 3.789 81.043 3.789 78.277 3.789 76.035 6.031 76.035 8.801 76.035 11.566 78.277 13.813 81.043 13.813 82.066 13.813 83.016 13.504 83.809 12.977L90.016 19.184 90.031 19.164V19.184H108.699L113.273 26.973 112.207 28.789H105.746L99.863 23.305" fill="#62c332"/>
</g>
</g>
</g>
</svg>
